<?xml version="1.0" encoding="UTF-8" standalone="no"?>
<!-- Created with Inkscape (http://www.inkscape.org/) -->

<svg
   width="16mm"
   height="16mm"
   viewBox="0 0 16 16"
   version="1.1"
   id="svg1"
   xml:space="preserve"
   inkscape:version="1.4.3 (0d15f75042, 2025-12-25)"
   sodipodi:docname="villepreux-symbolic.svg"
   xmlns:inkscape="http://www.inkscape.org/namespaces/inkscape"
   xmlns:sodipodi="http://sodipodi.sourceforge.net/DTD/sodipodi-0.dtd"
   xmlns="http://www.w3.org/2000/svg"
   xmlns:svg="http://www.w3.org/2000/svg"><sodipodi:namedview
     id="namedview1"
     pagecolor="#ffffff"
     bordercolor="#000000"
     borderopacity="0.25"
     inkscape:showpageshadow="2"
     inkscape:pageopacity="0.0"
     inkscape:pagecheckerboard="0"
     inkscape:deskcolor="#d1d1d1"
     inkscape:document-units="mm"
     inkscape:zoom="6.7267948"
     inkscape:cx="27.204636"
     inkscape:cy="34.191618"
     inkscape:window-width="1536"
     inkscape:window-height="891"
     inkscape:window-x="0"
     inkscape:window-y="0"
     inkscape:window-maximized="1"
     inkscape:current-layer="layer1" /><defs
     id="defs1" /><g
     inkscape:label="Layer 1"
     inkscape:groupmode="layer"
     id="layer1"><path
       style="fill:#4c4c4c;stroke-width:0.0356371"
       d="M 7.9776647,15.546677 C 7.5226207,15.517421 6.8855677,15.40654 6.4313107,15.277533 5.6181217,15.046587 4.7863224,14.640018 4.092921,14.134566 3.71128,13.856371 3.4610161,13.638097 3.0808762,13.25189 L 2.8042926,12.970893 2.6785724,12.918676 C 2.4066569,12.805733 2.2506556,12.786102 1.8893548,12.819366 1.5768391,12.848136 1.3843926,12.795006 1.2468073,12.641977 1.1708873,12.557537 1.127445,12.462588 1.0640454,12.24253 0.99030353,11.986576 0.95380313,11.926624 0.81597293,11.835067 c -0.1007352,-0.06692 -0.1874946,-0.102842 -0.4182237,-0.173184 -0.2086654,-0.06361 -0.2619232,-0.08968 -0.2729398,-0.133573 -0.01201,-0.04785 0.00519,-0.06816 0.09703,-0.114657 0.1716771,-0.0869 0.5312655,-0.123772 0.7155127,-0.07338 0.15550147,0.04253 0.34002367,0.154672 0.41162587,0.25016 0.039895,0.0532 0.091209,0.154982 0.1408711,0.279418 0.087766,0.219907 0.1855455,0.341811 0.3015368,0.375931 0.085444,0.02513 0.2021986,0.02555 0.3403047,0.0013 0.058775,-0.01035 0.1089271,-0.01883 0.1114512,-0.01884 0.00252,-8e-6 -0.00572,-0.01558 -0.018324,-0.03459 C 1.9763833,11.818741 1.7014278,11.290732 1.509586,10.820115 1.3901737,10.527177 1.3622358,10.443532 1.1925922,9.8710423 c -0.00468,-0.015779 0.022292,0.00249 0.072967,0.049444 0.3690673,0.3419377 0.8681514,0.6079857 1.3815836,0.7364857 0.3275229,0.08197 0.6016674,0.113461 0.9204729,0.105732 0.5856356,-0.01421 0.9770027,-0.15966 1.593924,-0.592412 0.07499,-0.0526 0.10527,-0.06029 0.132035,-0.03353 0.06739,0.06739 -0.08532,0.353411 -0.333668,0.624959 -0.08409,0.09194 -0.2881394,0.260344 -0.4206799,0.347183 -0.2259179,0.148016 -0.577181,0.298476 -0.8797011,0.376808 -0.2843889,0.07364 -0.4495442,0.09369 -0.7735151,0.09391 -0.1624928,9.1e-5 -0.3661588,-0.0062 -0.4525914,-0.01393 -0.086433,-0.0078 -0.1584013,-0.01292 -0.1599307,-0.01144 -0.00403,0.0039 0.1320678,0.236449 0.2109441,0.360456 0.1678628,0.263909 0.4832646,0.67309 0.6800878,0.882301 l 0.079792,0.08482 0.1301949,0.01262 c 0.8387281,0.08126 1.6906724,-0.201153 2.1706744,-0.719599 0.161747,-0.174702 0.337603,-0.472006 0.437771,-0.7401 0.09855,-0.263757 0.129676,-0.402484 0.215377,-0.959848 0.06538,-0.425233 0.09209,-0.5581125 0.15171,-0.7548638 0.09729,-0.321056 0.196397,-0.536367 0.358125,-0.778011 0.156968,-0.2345327 0.405978,-0.466716 0.466056,-0.4345633 0.01319,0.00706 0.02398,0.023411 0.02398,0.036338 0,0.012927 -0.03911,0.1307089 -0.0869,0.261738 -0.228938,0.6276355 -0.293651,0.9508234 -0.327856,1.6373871 -0.03961,0.795118 -0.106139,1.174728 -0.285312,1.628072 -0.254759,0.644589 -0.60805,1.118304 -1.1279,1.512359 -0.171148,0.129733 -0.439035,0.300141 -0.6141564,0.390679 l -0.1462231,0.07559 0.1909815,0.116567 c 0.391922,0.239214 1.112148,0.576344 1.231269,0.576344 0.04754,0 0.469927,-0.239478 0.682074,-0.386712 0.4228,-0.29343 0.80505,-0.716201 1.020077,-1.128213 0.15911,-0.304869 0.245175,-0.571758 0.325623,-1.009762 0.06525,-0.355241 0.07144,-0.378448 0.110973,-0.415583 l 0.02902,-0.02727 0.03382,0.02661 c 0.06384,0.05021 0.12333,0.214747 0.172417,0.476819 0.05013,0.267652 0.04599,0.749064 -0.009,1.049761 -0.05815,0.317803 -0.177345,0.677882 -0.311359,0.940608 -0.129695,0.254258 -0.341126,0.563166 -0.50265,0.73439 -0.076,0.08057 -0.09861,0.116332 -0.07372,0.11662 0.0052,9.2e-5 0.07959,0.0084 0.165338,0.01849 0.508072,0.05991 1.162557,0.0527 1.717317,-0.0189 l 0.100576,-0.01298 0.08811,-0.09079 c 0.193287,-0.199171 0.374226,-0.460862 0.4974063,-0.719391 0.136807,-0.287127 0.204315,-0.503714 0.244912,-0.785749 0.01145,-0.07951 0.02249,-0.146377 0.02454,-0.148576 0.0072,-0.0078 0.189315,0.127077 0.249241,0.184585 0.125161,0.120109 0.144412,0.21634 0.08837,0.441726 -0.02754,0.110772 -0.03594,0.174039 -0.03594,0.270574 0,0.116887 0.003,0.13203 0.04109,0.209433 0.04451,0.09039 0.167558,0.217536 0.224316,0.231782 0.03417,0.0086 0.243228,-0.07832 0.553346,-0.230016 l 0.164988,-0.08071 -0.06012,-0.100028 c -0.115604,-0.192348 -0.178424,-0.414361 -0.178096,-0.629402 3.2e-4,-0.199849 0.03942,-0.327031 0.168285,-0.547216 0.07559,-0.129151 0.193221,-0.362626 0.217792,-0.432265 0.02691,-0.07628 0.02395,-0.219395 -0.0063,-0.307505 -0.02958,-0.08596 -0.108392,-0.225469 -0.229654,-0.406512 -0.150273,-0.224356 -0.191488,-0.344044 -0.189083,-0.549105 0.002,-0.165336 0.03464,-0.286854 0.128557,-0.477736 0.08265,-0.167967 0.164864,-0.284175 0.320652,-0.453198 0.121486,-0.131807 0.221999,-0.205997 0.291763,-0.215354 0.04119,-0.0055 0.05427,-0.0013 0.08273,0.02723 0.07382,0.07382 0.05397,0.242027 -0.07102,0.601665 -0.124654,0.358696 -0.142253,0.475007 -0.09501,0.627954 0.03086,0.0999 0.08721,0.185593 0.244255,0.371433 0.13859,0.163998 0.173275,0.218841 0.218115,0.344883 0.02728,0.0767 0.03232,0.11244 0.03225,0.229166 -9.2e-5,0.207591 -0.03101,0.285075 -0.302192,0.758085 -0.13184,0.229956 -0.179972,0.386399 -0.179972,0.584955 0,0.12566 0.01751,0.264914 0.03735,0.297017 0.0082,0.01331 0.02763,0.0062 0.0896,-0.03302 0.07076,-0.04474 0.08249,-0.05825 0.111222,-0.128126 0.04209,-0.102362 0.122254,-0.209491 0.203527,-0.271997 0.150351,-0.115636 0.242833,-0.2038 0.270462,-0.257834 0.03488,-0.06823 0.03819,-0.162347 0.01072,-0.305869 -0.01037,-0.05419 -0.01886,-0.150372 -0.01885,-0.213724 9e-6,-0.100627 0.0046,-0.124718 0.03586,-0.190616 0.06677,-0.140491 0.213165,-0.272219 0.40432,-0.363826 0.132858,-0.06367 0.220552,-0.05886 0.243469,0.01334 0.01272,0.04009 -0.0093,0.08436 -0.105568,0.212481 -0.125748,0.167303 -0.163146,0.252116 -0.163411,0.370587 -2.28e-4,0.1045 0.03671,0.342003 0.05236,0.3366 0.02985,-0.01031 0.279346,-0.258224 0.434736,-0.431991 0.818094,-0.91484 1.367417,-1.936506 1.64876,-3.0664657 0.125162,-0.5026929 0.188561,-0.9646035 0.198995,-1.44985 l 0.0071,-0.3309429 -0.09284,0.010357 c -0.131195,0.014632 -0.33092,0.0082 -0.466979,-0.015052 C 14.726703,7.9632335 14.331658,7.8797833 14.037362,7.8095409 13.781522,7.7484762 13.609965,7.7169535 13.314473,7.6767101 13.15025,7.6543446 12.752064,7.646962 12.585297,7.6631913 12.272744,7.6936081 11.883999,7.7761387 11.279158,7.9404862 10.920434,8.0379585 10.709224,8.0827525 10.47359,8.1113332 10.29975,8.1324184 9.8909207,8.1395198 9.7125987,8.1245511 9.4451577,8.1021114 9.1074557,8.0301484 8.8514177,7.9410459 8.6949867,7.8866075 8.4261317,7.7529097 8.2900537,7.6618883 8.1457867,7.5653905 7.9619027,7.3900073 7.8785017,7.2693646 7.6601707,6.9535369 7.5872767,6.5864848 7.6889317,6.314789 c 0.06063,-0.1620504 0.219958,-0.3660265 0.380751,-0.487451 0.169325,-0.127867 0.290433,-0.1727964 0.492579,-0.1827391 0.202301,-0.00995 0.347157,0.031393 0.516207,0.1473282 0.08257,0.056628 0.244416,0.1337387 0.332402,0.158373 0.06236,0.01746 0.123415,0.02264 0.257726,0.02187 0.152606,-8.749e-4 0.191052,-0.00549 0.289155,-0.034735 0.2474373,-0.073753 0.4826943,-0.2215958 0.7207723,-0.4529534 0.213832,-0.2077966 0.353184,-0.3958316 0.477412,-0.6441978 0.07917,-0.1582814 0.08441,-0.1752695 0.05727,-0.1856809 -0.01174,-0.00451 -0.08016,-0.014395 -0.152061,-0.021978 -0.15894,-0.016764 -0.331799,-4.105e-4 -0.507126,0.047917 -0.352197,0.097122 -0.366132,0.099243 -0.381915,0.058113 -0.02102,-0.054791 0.152477,-0.2490825 0.310236,-0.3474099 0.21843,-0.1361389 0.549193,-0.2217379 0.856824,-0.2217379 h 0.08121 l 0.01893,-0.084861 c 0.02776,-0.1245216 0.0484,-0.3128789 0.04374,-0.39916 l -0.0041,-0.075432 -0.08782,-0.021927 c -0.223577,-0.055818 -0.522336,-0.060252 -0.737453,-0.010946 -0.216558,0.049637 -0.492788,0.1813433 -0.6787703,0.3236388 -0.03896,0.029809 -0.14616,0.1349869 -0.238223,0.2337312 -0.320296,0.3435414 -0.474627,0.4894994 -0.620132,0.5864892 -0.230931,0.1539319 -0.467719,0.2613104 -0.643884,0.2919878 -0.07576,0.013194 -0.08596,0.012477 -0.100237,-0.00705 -0.0087,-0.011955 -0.0129,-0.029527 -0.0092,-0.039048 0.0037,-0.00952 0.06691,-0.064911 0.140572,-0.1230857 0.270354,-0.2135226 0.506414,-0.4747979 0.78433,-0.8681114 0.193573,-0.273949 0.265523,-0.3645854 0.398568,-0.5020734 0.205634,-0.212502 0.4103433,-0.3622133 0.6482473,-0.4740877 0.265839,-0.125011 0.470291,-0.173627 0.77398,-0.1840426 l 0.20824,-0.00714 0.04776,0.041931 c 0.114643,0.1006576 0.429057,0.5429209 0.610722,0.8590558 0.215638,0.3752558 0.396576,0.8779301 0.495969,1.3778839 0.04577,0.230216 0.08428,0.6470169 0.07976,0.8632153 -0.0023,0.1138595 8.63e-4,0.1806775 0.0088,0.1813269 0.0069,5.654e-4 0.03237,0.00279 0.05658,0.00495 0.0242,0.00216 0.104038,0.00747 0.177415,0.011809 l 0.133412,0.00788 0.02322,-0.078859 c 0.01312,-0.044581 0.02345,-0.1198452 0.02374,-0.1731491 6.34e-4,-0.1149448 -0.02461,-0.1730228 -0.126166,-0.2902321 -0.03843,-0.044352 -0.08957,-0.1204896 -0.113655,-0.1691922 -0.03972,-0.080331 -0.04379,-0.098566 -0.04379,-0.1964586 0,-0.1146962 0.0032,-0.135687 0.03965,-0.2579668 0.04524,-0.1518479 0.101731,-0.2309903 0.14744,-0.2065276 0.01825,0.00977 0.03003,0.041265 0.04626,0.1235792 0.04367,0.2215506 0.08235,0.360893 0.113059,0.4073019 0.01728,0.026101 0.08083,0.090665 0.141234,0.1434757 0.06041,0.052811 0.122591,0.1148007 0.13819,0.1377559 0.08519,0.1253635 0.09325,0.244572 0.03176,0.4692219 -0.0278,0.1015437 -0.03461,0.1433977 -0.02389,0.1466488 0.0082,0.0025 0.03586,0.00745 0.06134,0.010985 0.04424,0.00614 0.04876,0.00321 0.100001,-0.064931 0.02952,-0.039251 0.09988,-0.1285137 0.156361,-0.1983607 0.125153,-0.1547705 0.159956,-0.2346289 0.161071,-0.3695994 6.33e-4,-0.080108 -0.005,-0.1065805 -0.03785,-0.1760079 -0.02124,-0.044944 -0.06005,-0.1096344 -0.08624,-0.1437548 -0.279372,-0.3639631 -0.332385,-0.5404831 -0.225958,-0.7523743 0.05404,-0.1075979 0.100419,-0.1613888 0.240838,-0.2793547 0.07408,-0.062232 0.156231,-0.1414345 0.182563,-0.1760078 0.05715,-0.075029 0.09775,-0.1964126 0.09775,-0.2922209 0,-0.086541 -0.05222,-0.2699799 -0.142767,-0.5014706 -0.03783,-0.096711 -0.08132,-0.2171565 -0.09666,-0.2676563 -0.02624,-0.086391 -0.0267,-0.094315 -0.0078,-0.1340754 0.03577,-0.075 0.114865,-0.073613 0.232098,0.00407 0.238094,0.157766 0.489011,0.498835 0.580486,0.7890524 0.01775,0.056324 0.0302,0.1359235 0.03457,0.2211238 0.01094,0.212957 -0.02685,0.3005199 -0.218488,0.5063735 -0.128825,0.1383775 -0.176799,0.2194344 -0.188538,0.3185401 -0.01118,0.094384 0.02271,0.1846669 0.137863,0.3672501 0.212283,0.3365972 0.246533,0.4164547 0.256584,0.5982304 0.01109,0.2005304 -0.03809,0.2932733 -0.292854,0.5523272 -0.08684,0.088303 -0.155794,0.1626515 -0.153226,0.1652189 0.0026,0.00257 0.06065,0.024933 0.129076,0.049701 0.06842,0.024769 0.166783,0.062674 0.218573,0.084235 0.06509,0.0271 0.09571,0.034565 0.09917,0.024184 0.0137,-0.041127 0.125418,-0.1703264 0.200724,-0.2321515 0.180106,-0.147864 0.233185,-0.2304637 0.230807,-0.3591739 -0.0014,-0.079022 -0.01777,-0.1440759 -0.07759,-0.3094848 -0.05816,-0.1608088 -0.06535,-0.3151483 -0.02067,-0.443626 0.05873,-0.1688675 0.2565,-0.4013335 0.475249,-0.5586144 0.187656,-0.1349253 0.330869,-0.183763 0.362972,-0.1237788 0.03204,0.059871 0.008,0.1360097 -0.08754,0.2774101 -0.09503,0.1406147 -0.232311,0.3729367 -0.26002,0.4400198 -0.05414,0.1310697 -0.03135,0.3040573 0.0595,0.4517079 0.08001,0.1300417 0.10497,0.2104534 0.105617,0.340327 5.29e-4,0.1070934 -0.0032,0.1272276 -0.03616,0.1948657 -0.05005,0.1027283 -0.175687,0.2245549 -0.38771,0.3759573 -0.177063,0.1264379 -0.200346,0.1470437 -0.175496,0.1553268 0.04532,0.015106 0.312027,0.1860937 0.444785,0.2851516 0.245252,0.1829987 0.360973,0.3257717 0.408198,0.5036229 0.04767,0.1795106 0.05342,0.810362 0.01132,1.2424541 -0.09163,0.9406369 -0.349299,1.8210153 -0.785716,2.6845623 -0.56644,1.120829 -1.495572,2.1517 -2.590195,2.87382 -0.943598,0.62249 -2.116573,1.047832 -3.2247143,1.169344 -0.370068,0.04058 -0.890456,0.05377 -1.23834,0.03142 z M 15.439768,7.6743988 c 0.0049,-0.00494 -0.0039,-0.040769 -0.01973,-0.079626 C 15.37063,7.473025 15.225423,7.3358502 14.998867,7.1968872 14.341781,6.7938504 13.466373,6.531374 12.683444,6.5026483 l -0.178438,-0.00654 -0.0078,0.059328 c -0.02549,0.1956861 -0.131792,0.6052444 -0.203826,0.7852758 -0.01062,0.02655 -0.01719,0.050019 -0.0146,0.052154 0.0026,0.00213 0.06978,-0.00365 0.149294,-0.012863 0.230064,-0.026645 0.635213,-0.035391 0.84861,-0.018319 0.347867,0.027829 0.498242,0.05343 1.047834,0.1783879 0.287927,0.065465 0.609382,0.1240118 0.775103,0.1411696 0.07895,0.00818 0.330152,0.00312 0.340074,-0.00684 z M 3.3143546,15.117633 c -0.07821,-0.02246 -0.1474227,-0.08084 -0.1836666,-0.154922 -0.029153,-0.05959 -0.033123,-0.08114 -0.028855,-0.156657 0.00409,-0.0723 0.011518,-0.09691 0.042635,-0.141187 0.1107943,-0.157642 0.2971127,-0.180216 0.4336116,-0.05254 0.1693322,0.158391 0.1106727,0.437014 -0.105523,0.501217 -0.07115,0.02113 -0.096575,0.02178 -0.1582014,0.0041 z m 0.1980205,-0.405488 c 0.00526,-0.04409 -0.017285,-0.07017 -0.060625,-0.07017 -0.066702,0 -0.085968,0.07906 -0.026469,0.108613 0.04217,0.02095 0.082116,0.0033 0.087094,-0.03844 z M 1.7919435,14.437525 C 1.6427374,14.374565 1.549922,14.288156 1.485524,14.15226 1.449235,14.07568 1.446521,14.06031 1.446566,13.931655 c 4.28e-5,-0.128436 0.00281,-0.144116 0.038852,-0.22001 0.049909,-0.105105 0.094083,-0.15649 0.1850997,-0.215316 0.1732594,-0.111984 0.3773167,-0.122163 0.5512465,-0.0275 0.085313,0.04643 0.180599,0.151925 0.2272259,0.251565 0.077082,0.164718 0.057744,0.377435 -0.047449,0.521956 -0.1012021,0.139039 -0.2426796,0.211819 -0.4269998,0.219664 -0.097064,0.0041 -0.12302,6.33e-4 -0.1825979,-0.0245 z m 0.3774636,-0.625303 c 0.074091,-0.07409 -0.022316,-0.226296 -0.1433348,-0.226296 -0.1084127,0 -0.115082,0.174892 -0.00887,0.23262 0.048899,0.02658 0.1223556,0.02353 0.1522058,-0.0063 z m 9.0009669,0.426336 c -0.0255,-0.06117 -0.01835,-0.194029 0.01775,-0.329895 0.07299,-0.274739 0.06431,-0.399735 -0.037,-0.532556 -0.03717,-0.04873 -0.132535,-0.11476 -0.283926,-0.196587 -0.123275,-0.06663 -0.210967,-0.153337 -0.234493,-0.23186 -0.03028,-0.101045 -0.02976,-0.158501 0.0031,-0.354552 0.0452,-0.269039 0.04374,-0.378508 -0.0054,-0.408921 -0.05779,-0.03572 -0.187712,0.107136 -0.300319,0.33021 -0.02175,0.04309 -0.04376,0.07834 -0.04891,0.07834 -0.0051,0 -0.02284,-0.03819 -0.03932,-0.08486 -0.05404,-0.15306 -0.188734,-0.420596 -0.2829693,-0.56205 -0.130946,-0.196563 -0.23132,-0.307533 -0.517227,-0.571834 -0.379774,-0.351072 -0.639982,-0.617708 -0.761391,-0.7802 -0.377709,-0.505523 -0.556777,-0.9561689 -0.584206,-1.4702241 -0.01234,-0.2311846 0.02742,-0.3967182 0.09528,-0.3967182 0.03946,0 0.07439,0.061264 0.164872,0.2891559 0.159917,0.4027755 0.286652,0.6165228 0.56279,0.9491855 0.175846,0.2118429 0.493197,0.5237099 0.736403,0.7236799 0.4247553,0.349242 0.5165863,0.428113 0.6645193,0.57073 0.640128,0.617128 0.97492,1.412522 0.96595,2.294894 -0.0011,0.103719 -0.0099,0.239496 -0.01972,0.301727 -0.07165,0.455333 -0.06928,0.445886 -0.09578,0.382335 z m 2.055002,-2.874955 c -0.192596,-0.06869 -0.328864,-0.228948 -0.355281,-0.417812 -0.03095,-0.221293 0.0703,-0.428376 0.262298,-0.536473 0.360436,-0.202926 0.801142,0.0789 0.776724,0.496712 -0.01077,0.184244 -0.127328,0.353768 -0.298426,0.434027 -0.07074,0.03319 -0.09952,0.03924 -0.201928,0.04252 -0.09102,0.0029 -0.134646,-0.0016 -0.183387,-0.01898 z m 0.381833,-0.638259 c 0.04182,-0.04862 0.01409,-0.122217 -0.06398,-0.169821 -0.110087,-0.06712 -0.215575,0.0156 -0.167281,0.131183 0.03615,0.08651 0.170736,0.109003 0.231261,0.03864 z M 2.8749362,9.6444161 C 2.2665517,9.5752987 1.70448,9.360099 1.1836388,8.9968715 L 1.0402511,8.8968747 1.0265175,8.8118628 C 1.0024194,8.6626907 0.98764033,8.4101073 0.98764033,8.147403 c 0,-0.2653726 0.020451,-0.7255804 0.036212,-0.8148735 0.00908,-0.051441 0.00909,-0.051448 0.026009,-0.020027 0.040337,0.074896 0.2245389,0.3541146 0.2944315,0.4463052 0.1918194,0.2530173 0.5314123,0.5604118 0.8207729,0.7429508 0.4393106,0.2771334 0.964715,0.4197801 1.4878362,0.4039466 0.5075951,-0.015364 0.8061932,-0.1168145 1.3074858,-0.4442255 0.38726,-0.252932 0.657217,-0.3926168 0.942899,-0.4878879 0.335992,-0.1120486 0.593581,-0.1273453 0.575639,-0.034185 -0.0022,0.011219 -0.106073,0.088446 -0.230917,0.1716168 -0.259255,0.1727145 -0.5601,0.3964003 -0.734453,0.5460853 C 4.9913017,9.1054699 4.8441727,9.2149055 4.5871828,9.3461562 4.326291,9.4793992 4.0510526,9.5711425 3.746652,9.6263257 3.5515527,9.6616942 3.1080382,9.6708982 2.8749362,9.6444161 Z m 9.8956588,0.00227 c -0.158841,-0.057609 -0.224939,-0.2401555 -0.144438,-0.3989067 0.04855,-0.095757 0.116594,-0.1409936 0.222168,-0.1477163 0.0959,-0.00611 0.157613,0.012078 0.216527,0.063807 0.06409,0.056274 0.09739,0.1282196 0.09739,0.2104402 0,0.1959829 -0.206429,0.3395458 -0.391644,0.272374 z m 0.18773,-0.3183244 c 0.03218,-0.029113 0.02864,-0.060925 -0.01013,-0.091429 -0.04141,-0.032573 -0.06075,-0.032763 -0.09259,-9.106e-4 -0.03255,0.032551 -0.03169,0.044881 0.0057,0.082289 0.03604,0.036041 0.06499,0.03904 0.09702,0.010052 z M 3.4684821,7.8472801 C 3.0178946,7.7861756 2.5611903,7.6258566 2.2153737,7.4073968 1.9595283,7.2457737 1.5687347,6.884632 1.4324773,6.6839028 1.3972744,6.6320436 1.3329826,6.525942 1.2896063,6.4481219 1.1971552,6.2822569 1.1975077,6.3057921 1.2831782,6.0186455 1.3552627,5.777027 1.4608255,5.4798771 1.5407414,5.2936298 c 0.094334,-0.2198489 0.231476,-0.5075451 0.2420808,-0.507837 0.00519,-1.367e-4 0.00943,0.041881 0.00943,0.093386 0,0.1990256 0.075965,0.627408 0.1511702,0.8524819 0.085319,0.255341 0.2830493,0.6057647 0.4782607,0.847587 0.1094794,0.1356203 0.3756441,0.3985281 0.4896285,0.4836377 0.1382632,0.1032383 0.3074731,0.2030814 0.5281637,0.3116446 0.1801225,0.088608 0.2706187,0.1218982 0.6672631,0.2454695 0.1467395,0.045716 0.1873389,0.071607 0.1873389,0.1194754 0,0.04863 -0.034,0.070895 -0.1459512,0.095581 -0.1235689,0.027247 -0.5167133,0.034318 -0.6796395,0.012223 z M 5.4672347,7.1133277 C 4.9728137,6.7856375 4.4599463,6.4822196 4.1352737,6.3253263 3.7165468,6.1229823 3.4364547,5.9611389 3.2569391,5.8178059 2.9633752,5.5834113 2.7649653,5.3284218 2.5970663,4.9697605 2.4690374,4.696269 2.4011413,4.3972603 2.3766794,3.9991987 l -0.00854,-0.1388773 0.059404,-0.087418 C 2.5126205,3.6477133 2.5946936,3.5478215 2.7961032,3.324334 2.9567513,3.1460758 3.2633895,2.8498972 3.3566186,2.7829372 c 0.03525,-0.025317 0.03646,-0.025405 0.027452,-0.00198 -0.046449,0.1207385 -0.1241069,0.5272154 -0.1473893,0.7714654 -0.029777,0.3123902 0.019522,0.7422433 0.1211788,1.0565894 0.054614,0.1688793 0.1864844,0.4338556 0.2724248,0.5474031 0.161573,0.2134768 0.4108162,0.4396307 0.7165336,0.6501566 0.4585122,0.3157442 0.7047142,0.513985 0.9252092,0.744974 0.144575,0.1514557 0.215086,0.2447768 0.290204,0.3840846 0.07017,0.130133 0.09263,0.1968845 0.07644,0.2271428 -0.0205,0.038308 -0.05333,0.02884 -0.171438,-0.049437 z M 6.3785527,6.2402335 C 6.3603797,6.2249545 6.2807467,6.1134492 6.2015887,5.9924438 5.8789017,5.4991641 5.7010237,5.3121434 5.1314347,4.867288 4.7347264,4.5574547 4.5294902,4.3132456 4.3370414,3.9220439 4.1395788,3.5206513 4.0436703,3.0542112 4.0596254,2.5728632 4.0689293,2.2921838 4.0755494,2.245349 4.1097775,2.2180794 4.199186,2.1468483 4.5928189,1.9183063 4.7780938,1.8300571 4.9910887,1.728605 5.2369717,1.6181644 5.2369717,1.6239481 c 0,0.00269 -0.02322,0.057473 -0.0516,0.1217431 -0.204639,0.4634547 -0.299363,0.9521265 -0.262879,1.3561655 0.04361,0.4829438 0.206225,0.8924184 0.491405,1.2373708 0.09363,0.1132506 0.102338,0.1229365 0.283853,0.3155914 0.251526,0.2669641 0.351242,0.3982696 0.486302,0.6403645 0.124374,0.2229393 0.242933,0.5578515 0.272142,0.7687628 0.01413,0.1020311 0.0071,0.1572946 -0.02362,0.1850736 -0.01886,0.017065 -0.02434,0.016172 -0.05403,-0.00879 z m 0.831376,-1.0094129 c -0.01332,-0.016054 -0.01363,-0.035999 -0.0016,-0.103719 0.0082,-0.046114 0.02298,-0.1291019 0.03284,-0.1844187 0.031,-0.1737925 0.0576,-0.4399695 0.0576,-0.5763783 0,-0.1703277 -0.01587,-0.3250124 -0.07051,-0.6871063 -0.108825,-0.7212045 -0.05487,-1.2252445 0.18352,-1.7145916 0.103938,-0.2133501 0.271574,-0.4456735 0.486222,-0.6738455 0.07659,-0.081417 0.09648,-0.096071 0.126149,-0.092961 0.01937,0.00202 0.100286,0.01001 0.179804,0.01773 0.07952,0.00772 0.198323,0.02245 0.264012,0.032731 0.118378,0.01853 0.532336,0.1134559 0.64117,0.1470278 l 0.05658,0.017451 -0.09035,0.045505 c -0.612637,0.3085725 -1.046842,0.7848545 -1.23391,1.3534837 -0.07715,0.2345273 -0.09505,0.3903589 -0.109009,0.9491847 -0.01141,0.4568186 -0.03113,0.6046512 -0.11569,0.8674673 -0.0882,0.2741273 -0.196419,0.4783455 -0.305876,0.5772329 -0.05501,0.049701 -0.07623,0.054999 -0.100958,0.025205 z M 6.3097157,4.3915709 C 6.1873317,4.2942619 6.0531927,4.0993177 5.9258747,3.8337381 5.7582057,3.483986 5.6894657,3.153871 5.6896667,2.6993827 c 1.37e-4,-0.2800592 0.01336,-0.4091863 0.06302,-0.6146426 0.05508,-0.2278995 0.210308,-0.6041464 0.284314,-0.6891274 0.04543,-0.052164 0.525011,-0.1511539 0.903477,-0.1864834 0.04149,-0.00386 0.129178,-0.012503 0.194866,-0.019181 0.06569,-0.00668 0.131554,-0.012239 0.146367,-0.012359 0.02015,-1.824e-4 -0.02437,0.051204 -0.176882,0.2040766 -0.372916,0.3737971 -0.528193,0.6053353 -0.704417,1.0503775 -0.09482,0.2394582 -0.147639,0.5312422 -0.149527,0.8259917 -0.0014,0.2110642 0.01768,0.374148 0.07408,0.6348852 0.02318,0.1071764 0.05377,0.2483461 0.06797,0.3137113 0.0295,0.1358068 0.03225,0.1902695 0.01073,0.2117977 -0.0227,0.0227 -0.03661,0.018724 -0.09394,-0.02686 z m 2.27892,-0.5683605 c -0.03401,-0.034013 -0.04964,-0.1210144 -0.04845,-0.269732 0.0014,-0.175076 0.03438,-0.3479598 0.102573,-0.5376807 0.186376,-0.518521 0.469511,-0.8907531 0.893657,-1.1748731 0.0725,-0.048569 0.164478,-0.1041234 0.204384,-0.1234542 l 0.07256,-0.035147 0.125058,0.061156 c 0.2410353,0.1178715 0.4579183,0.2504087 0.6659673,0.4069728 0.116134,0.087394 0.117836,0.089418 0.08172,0.097195 -0.02028,0.00437 -0.06517,0.00863 -0.09975,0.00948 -0.319151,0.00781 -0.8030273,0.1899462 -1.1000513,0.414073 -0.170574,0.1287114 -0.373884,0.3402259 -0.479644,0.4990012 -0.08209,0.1232472 -0.191297,0.3317924 -0.27483,0.5248395 -0.06051,0.1398335 -0.09798,0.173377 -0.14319,0.1281686 z M 15.196274,3.2711328 c -0.117419,-0.053165 -0.178175,-0.1456569 -0.177898,-0.270822 5.76e-4,-0.2708407 0.330649,-0.3733557 0.497545,-0.1545402 0.128616,0.1686258 0.0076,0.4197436 -0.211338,0.438534 -0.04348,0.00373 -0.08108,-8.462e-4 -0.108309,-0.013172 z m 0.218325,-0.3391249 c 0.01549,-0.02364 0.01692,-0.036424 0.0062,-0.056286 -0.03078,-0.057517 -0.116424,-0.065492 -0.130376,-0.012141 -0.0049,0.019012 0.0036,0.03762 0.02896,0.062998 0.04404,0.044043 0.0689,0.045462 0.09513,0.00543 z M 12.796574,2.5476087 c -0.19274,-0.028171 -0.354799,-0.210899 -0.35923,-0.4050447 -0.0074,-0.3235194 0.316753,-0.543045 0.598284,-0.4051933 0.09041,0.044269 0.171737,0.1221877 0.209972,0.2011711 0.04451,0.091927 0.04977,0.2497225 0.01171,0.3507089 -0.03161,0.083843 -0.115741,0.1776112 -0.195669,0.2180585 -0.04355,0.022041 -0.167885,0.055519 -0.190943,0.051414 -0.0048,-8.636e-4 -0.0382,-0.00587 -0.07412,-0.011114 z M 13.024485,2.042932 c 0.08867,-0.040403 0.02221,-0.1740999 -0.08655,-0.1740999 -0.03981,0 -0.08248,0.040917 -0.08194,0.078575 5.1e-4,0.036342 0.02402,0.066855 0.06993,0.090802 0.04396,0.022927 0.05721,0.023561 0.09855,0.00472 z m 1.264318,-0.162553 c -0.23917,-0.027116 -0.429081,-0.1622136 -0.543948,-0.3869493 -0.122684,-0.2400272 -0.109388,-0.50128871 0.0367,-0.7211918 0.07386,-0.11117504 0.163857,-0.188907 0.287234,-0.24808313 0.134793,-0.0646511 0.211779,-0.0808126 0.344237,-0.0722613 0.251177,0.0162159 0.481462,0.16010013 0.585891,0.36607494 0.118015,0.23276929 0.121901,0.44136869 0.01246,0.66889999 -0.0719,0.1494751 -0.178878,0.2577971 -0.324956,0.3290222 -0.13309,0.064892 -0.240465,0.082307 -0.397624,0.064489 z m 0.417662,-0.8780336 c 0.08778,-0.0982445 9.1e-5,-0.2519825 -0.164628,-0.2885301 -0.05473,-0.0121465 -0.06409,-0.0111502 -0.13105,0.0139134 -0.06886,0.0257769 -0.08936,0.1140861 -0.04777,0.20568822 0.05596,0.12323238 0.258582,0.16389578 0.343438,0.0689258 z"
       id="path1" /></g></svg>
