<svg viewBox="0 -55 511.998 511" xmlns="http://www.w3.org/2000/svg"><path d="m508.914062 263.890625c-.335937-1.117187-3.460937-11.265625-10.191406-22.816406-9.722656-16.691407-22.339844-28.085938-36.488281-32.949219-7.28125-2.5-14.515625-4.023438-21.492187-4.652344 2.6875-8.308594 4.1875-17.59375 4.1875-27.46875 0-14.964844-6.671876-30.597656-19.292969-45.21875-8.738281-10.121094-17.316407-16.378906-18.265625-17.058594l-8.761719-6.273437-8.757813 6.273437c-.949218.679688-9.527343 6.9375-18.265624 17.058594-12.621094 14.621094-19.296876 30.253906-19.296876 45.21875 0 29.28125 13.105469 53.460938 31.699219 61.878906-.148437 1.210938-.21875 2.429688-.242187 3.648438-5.234375 15.992188-17.011719 29.035156-32.15625 35.96875 1.609375-6.015625 2.488281-12.554688 2.488281-19.433594 0-28.929687-28.023437-49.839844-31.21875-52.128906l-8.761719-6.273438-8.757812 6.273438c-3.195313 2.289062-31.222656 23.199219-31.222656 52.128906 0 9.007813 1.511718 17.433594 4.195312 24.863282h-11.710938c-.570312-11.964844-5.164062-22.882813-12.445312-31.457032 5.9375-15.410156 10.316406-31.191406 13.136719-47.152344 6.992187.109376 14.894531-1.53125 22.667969-5.0625 18.960937-8.613281 24.585937-37.054687 24.585937-37.054687s-24.585937-14.160156-43.476563-6.113281c-.117187-6.332032-.484374-12.660156-1.085937-18.980469 4.195313.886719 8.636719 1.355469 13.261719 1.355469 11.136718 0 23.28125-2.609375 35.269531-8.054688 13.621094-6.1875 25.097656-18.726562 33.1875-36.269531 5.601563-12.140625 7.75-22.539063 7.976563-23.683594l2.09375-10.570312-9.335938-5.378907c-1.011719-.582031-10.257812-5.808593-23.082031-9.578124-18.535157-5.449219-35.53125-5.058594-49.152344 1.128906-5.609375 2.550781-10.761719 5.539062-15.421875 8.851562-1.066406-3.472656-2.339844-6.929687-3.84375-10.339844-6.027344-13.691406-18.433594-25.3125-35.878906-33.609374-12.078125-5.738282-22.449219-8.007813-23.589844-8.25l-10.546875-2.210938-5.488281 9.273438c-.59375 1.003906-5.925782 10.1875-9.84375 22.96875-5.660156 18.46875-5.46875 35.46875.5625 49.160156 4.210937 9.570312 9.863281 18.152344 16.445312 25.148437-3.03125-1.042969-6.453125-2.089843-10.179687-3.003906-10.679688-2.621094-20.777344-3.367187-29.953125-2.277344 1.035156-5.480469 1.59375-11.257812 1.59375-17.257812 0-14.960938-6.671875-30.597657-19.296875-45.21875-8.734375-10.121094-17.316407-16.375-18.265625-17.054688l-8.757813-6.273437-8.757812 6.273437c-.949219.679688-9.527344 6.933594-18.265625 17.054688-12.625 14.621093-19.296875 30.257812-19.296875 45.21875 0 6 .5625 11.777343 1.59375 17.257812-9.175781-1.089843-19.269531-.34375-29.953125 2.277344-12.984375 3.1875-22.453125 7.988281-23.488282 8.527344l-9.570312 4.949219 1.609375 10.65625c.175781 1.152343 1.851563 11.636718 6.898437 24.019531 7.292969 17.886719 18.1875 30.933593 31.519532 37.730469 12.46875 6.355468 25.824218 9.738281 38.195312 9.738281 1.902344 0 3.785156-.082031 5.632813-.242188 4.3125-.375 8.363281-1.195312 12.132812-2.417969 9.648438 34.628907 39.503907 60.917969 76 65.304688-5.761719 14.246094-3.605469 31.011719-3.605469 31.011719s28.417969 5.734375 43.65625-8.464844c6.207032-5.777344 10.738282-12.394531 13.332032-18.847656 6.695312 3.898437 11.207031 11.152343 11.207031 19.441406v47.007813c-33.488281-2.226563-65.59375-11.871094-94.347656-28.132813.855469-3.128906 1.339843-6.402344 1.382812-9.785156.082031-6.609375-1.382812-13.472657-4.347656-20.394531-5.488281-12.804688-15.8125-24.929688-29.074219-34.144532-12.289062-8.539062-28.933594-11.984375-48.148437-9.957031-13.296875 1.398437-23.328125 4.875-24.429688 5.265625l-10.148437 3.613281.152344 10.773438c.019531 1.167969.261718 11.78125 3.582031 24.730469 4.804687 18.710937 13.835937 33.113281 26.125 41.648437 3.328125 2.316406 6.765625 4.390625 10.265625 6.210937-7.367188 7.601563-13.351563 17.707032-17.605469 29.902344-4.402344 12.625-5.539063 23.183594-5.652344 24.34375l-1.0625 10.722656 9.8125 4.457032c1.0625.480468 10.769531 4.789062 23.898438 7.300781 6.125 1.171875 12.03125 1.753906 17.65625 1.753906 11.804687 0 22.378906-2.5625 31.15625-7.625 13.992187-8.066406 25.300781-19.28125 31.847656-31.574219 2.5625-4.816406 4.324219-9.664062 5.289063-14.476562 23.421874 8.761719 48.191406 14.015625 73.648437 15.507812v35.460938h30.085937v-85.050781h30.195313c-2.003906 17.125 5.175781 37.78125 20.820313 55.273437 9.976562 11.152344 25.375 18.359375 44.53125 20.839844 5.800781.75 11.082031.972656 15.289062.972656 5.410156 0 9.042969-.367187 9.695312-.4375l10.710938-1.164062 2.347656-10.515625c.253906-1.140625 2.476563-11.519531 2.242188-24.890625-.339844-19.3125-5.789063-35.414063-15.765625-46.566406-2.992188-3.347657-6.132813-6.394532-9.378907-9.140626 8.550782-5.835937 16.050782-13.105468 22.152344-21.460937 8.253906 8.277344 19.394532 15.269531 32.613282 19.8125 5.671874 1.953125 11.796874 2.921875 18.257812 2.921875 9.644531 0 20.039062-2.164062 30.777344-6.46875 12.410156-4.972656 21.113281-11.050781 22.066406-11.730469l8.777344-6.242187zm-377.828124 83.542969c-3.875 7.277344-11.28125 14.4375-20.316407 19.652344-9.664062 5.570312-23.835937 3.792968-34.253906 1.007812 2.808594-10.339844 8.386719-23.582031 18.03125-29.144531 9.039063-5.210938 18.9375-8.027344 27.183594-7.738281 5.601562.199218 9.808593 1.816406 11.253906 4.324218 1.445313 2.503906.734375 6.953125-1.898437 11.898438zm-38.0625-82.726563c8.566406 5.953125 15.34375 13.714844 18.589843 21.292969 2.207031 5.148438 2.539063 9.640625.890625 12.019531-1.652344 2.375-5.972656 3.628907-11.574218 3.355469-8.234376-.402344-17.871094-4.046875-26.4375-10-9.164063-6.363281-13.597657-19.945312-15.519532-30.554688 10.628906-1.898437 24.894532-2.476562 34.050782 3.886719zm348.871093 2.578125c-9.863281-3.390625-18.5-9.011718-23.691406-15.414062-3.527344-4.355469-5.074219-8.585938-4.132813-11.320313.941407-2.738281 4.761719-5.125 10.222657-6.386719 2.765625-.640624 5.796875-.957031 8.984375-.957031 6.070312 0 12.707031 1.144531 19.175781 3.367188 10.550781 3.625 18.519531 15.480469 23.261719 25.160156-9.640625 4.675781-23.289063 9.171875-33.820313 5.550781zm-33.921875-63.867187c-2.96875 4.753906-6.46875 7.589843-9.363281 7.589843-2.890625 0-6.390625-2.835937-9.363281-7.589843-4.367188-6.988281-6.875-16.984375-6.875-27.414063 0-11.15625 8.621094-22.546875 16.234375-30.179687 7.554687 7.601562 16.242187 19.042969 16.242187 30.179687 0 10.429688-2.507812 20.425782-6.875 27.414063zm-43.660156 123.160156c7.433594 8.3125 8.601562 22.550781 8.015625 33.316406-10.695313-.625-24.800781-3.367187-32.222656-11.664062-6.957031-7.777344-11.75-16.894531-13.152344-25.019531-.957031-5.523438-.238281-9.972657 1.917969-11.898438 1.203125-1.074219 3.132812-1.621094 5.539062-1.621094 1.90625 0 4.117188.34375 6.5 1.035156 7.914063 2.300782 16.445313 8.078126 23.402344 15.851563zm-60.113281-68.511719c0-6.847656 4.910156-14.113281 9.894531-19.605468 4.996094 5.5 9.898438 12.757812 9.898438 19.605468 0 16.042969-7.433594 24.859375-9.894532 24.859375-2.464844 0-9.898437-8.816406-9.898437-24.859375zm-97.816407-222.449218c9.976563 3.910156 22.539063 10.886718 27.023438 21.078124 4.203125 9.546876 5.9375 19.703126 4.757812 27.859376-.804687 5.546874-2.863281 9.550781-5.511718 10.71875-2.648438 1.167968-6.992188-.019532-11.625-3.171876-6.816406-4.636718-13.136719-12.773437-17.339844-22.324218-4.496094-10.207032-1.199219-24.101563 2.695312-34.160156zm120.453126 40.136718c-3.796876 10.019532-10.625 22.660156-20.761719 27.265625-9.5 4.3125-19.636719 6.164063-27.804688 5.078125-5.554687-.738281-9.585937-2.75-10.78125-5.386718-1.195312-2.632813-.058593-6.992188 3.039063-11.660157 4.558594-6.871093 12.621094-13.285156 22.121094-17.601562 3.609374-1.640625 7.699218-2.300781 11.921874-2.300781 7.65625.003906 15.753907 2.171874 22.265626 4.605468zm-273.144532 87.375c-9.9375-5.066406-16.167968-17.917968-19.511718-28.171875 10.203124-3.277343 24.347656-5.816406 34.261718-.761719 9.296875 4.738282 17.058594 11.511719 21.300782 18.578126 1.554687 2.585937 2.519531 5.042968 2.898437 7.175781-.0625 1.203125-.058594 2.398437-.011719 3.589843-.09375.367188-.21875.710938-.378906 1.023438-1.3125 2.578125-5.429688 4.40625-11.011719 4.894531-8.210937.714844-18.25-1.589843-27.546875-6.328125zm127.601563-28.179687c-3.339844 10.1875-9.589844 23.121093-19.507813 28.179687-9.292968 4.738282-19.332031 7.046875-27.546875 6.328125-5.582031-.488281-9.699219-2.316406-11.011719-4.894531-1.316406-2.578125-.375-6.984375 2.507813-11.789062 4.242187-7.066407 12.003906-13.835938 21.300781-18.578126h-.003906c9.941406-5.066406 24-2.558593 34.261719.753907zm-64.191407-23.023438c-2.96875 4.753907-6.46875 7.589844-9.363281 7.589844-2.890625 0-6.390625-2.835937-9.359375-7.589844-4.371094-6.988281-6.875-16.980469-6.875-27.414062 0-11.15625 8.617188-22.542969 16.230469-30.179688 7.554687 7.597657 16.242187 19.042969 16.242187 30.179688 0 10.433593-2.507812 20.425781-6.875 27.414062zm11.746094 87.195313c.910156.121094 1.835938.222656 2.773438.304687 1.851562.160157 3.730468.242188 5.632812.242188 12.371094 0 25.726563-3.382813 38.195313-9.738281 13.332031-6.796876 24.230469-19.84375 31.519531-37.730469 5.046875-12.382813 6.722656-22.863281 6.898438-24.019531l.835937-5.535157c2.84375 1.128907 5.707031 1.976563 8.585937 2.5 2.363282.429688 4.722657.644531 7.050782.644531 2.636718 0 5.234375-.28125 7.753906-.828124 6.03125 36.675781 2.726562 74.300781-9.863281 109.867187-4.503907-1.257813-9.242188-1.945313-14.144531-1.945313h-31.277344c-23.683594-.003906-44.203125-13.792968-53.960938-33.761718zm0 0"></path></svg>
